<?xml version="1.0" encoding="utf-8"?>
<!-- Generator: Adobe Illustrator 21.0.2, SVG Export Plug-In . SVG Version: 6.00 Build 0)  -->
<svg version="1.1" id="artwork" xmlns="http://www.w3.org/2000/svg" xmlns:xlink="http://www.w3.org/1999/xlink" x="0px" y="0px"
	 viewBox="0 0 2019.5 372" style="enable-background:new 0 0 2019.5 372;" xml:space="preserve">
<style type="text/css">
	.st0{fill:url(#SVGID_1_);}
	.st1{fill:url(#SVGID_2_);}
	.st2{fill:url(#SVGID_3_);}
	.st3{fill:url(#SVGID_4_);}
	.st4{fill:url(#SVGID_5_);}
	.st5{fill:#414042;}
</style>
<g>
	<linearGradient id="SVGID_1_" gradientUnits="userSpaceOnUse" x1="270.039" y1="37.1282" x2="382.4546" y2="231.8378">
		<stop  offset="0" style="stop-color:#BA131A"/>
		<stop  offset="0.3006" style="stop-color:#EF4123"/>
		<stop  offset="0.4479" style="stop-color:#F15A22"/>
		<stop  offset="0.4745" style="stop-color:#EA5621"/>
		<stop  offset="0.5101" style="stop-color:#DC4B20"/>
		<stop  offset="0.5508" style="stop-color:#C63A1B"/>
		<stop  offset="0.5949" style="stop-color:#A82213"/>
		<stop  offset="0.6319" style="stop-color:#8B0304"/>
		<stop  offset="0.6626" style="stop-color:#790000"/>
		<stop  offset="0.7105" style="stop-color:#971B0B"/>
		<stop  offset="0.7726" style="stop-color:#BC3619"/>
		<stop  offset="0.8274" style="stop-color:#D7491F"/>
		<stop  offset="0.8724" style="stop-color:#E85521"/>
		<stop  offset="0.9018" style="stop-color:#F15A22"/>
	</linearGradient>
	<path class="st0" d="M516.9,133.8c0,0,1.7,17.3-28.6,22.2c-42.2,6.8-85.7-9.4-85.7-9.4l0,0C346.7,131,285.1,95.5,210.4,95.5
		c-63.3,0-84.8,28.6-84.8,28.6c117.7-36.8,179.2,40.5,291.9,53.2c69.3,7.8,102.9-21.3,102.9-43.5H516.9z"/>
	<linearGradient id="SVGID_2_" gradientUnits="userSpaceOnUse" x1="257.2014" y1="316.3019" x2="353.5844" y2="51.4919">
		<stop  offset="0" style="stop-color:#EF4123"/>
		<stop  offset="6.407940e-02" style="stop-color:#D4301F"/>
		<stop  offset="0.1442" style="stop-color:#BC1F1A"/>
		<stop  offset="0.2116" style="stop-color:#AC1315"/>
		<stop  offset="0.2577" style="stop-color:#A70E13"/>
		<stop  offset="0.362" style="stop-color:#670000"/>
		<stop  offset="0.6" style="stop-color:#EF4123"/>
		<stop  offset="0.85" style="stop-color:#DE5434"/>
	</linearGradient>
	<path class="st1" d="M448,93.8c-82.3,0-148.2,80.2-215.4,127.4c0,0-46.4,39.9-101.5,33c-23.3-2.9-32.1-15.7-32.1-29.9h-5.2
		c0,30.4,36.8,54.8,82,54.8c54.6,0,83-18,114.2-38.7c70-49.2,132.1-128.4,197.5-128.4c20.8,0,29.2,9.9,29.4,21.9c0.5,0,3.5,0,3.5,0
		C520.5,111.6,488,93.8,448,93.8z"/>
	<linearGradient id="SVGID_3_" gradientUnits="userSpaceOnUse" x1="231.2751" y1="87.1325" x2="437.6178" y2="333.0421">
		<stop  offset="0" style="stop-color:#A70E13"/>
		<stop  offset="8.265465e-03" style="stop-color:#A91214"/>
		<stop  offset="0.1219" style="stop-color:#C73623"/>
		<stop  offset="0.2274" style="stop-color:#DD4D2E"/>
		<stop  offset="0.3209" style="stop-color:#EA5B35"/>
		<stop  offset="0.3926" style="stop-color:#F26139"/>
		<stop  offset="0.4743" style="stop-color:#F0522D"/>
		<stop  offset="0.5767" style="stop-color:#EF4123"/>
		<stop  offset="0.8" style="stop-color:#BA131A"/>
		<stop  offset="0.845" style="stop-color:#BF1C1B"/>
		<stop  offset="0.9038" style="stop-color:#CC2F1D"/>
		<stop  offset="0.97" style="stop-color:#E24B21"/>
		<stop  offset="1" style="stop-color:#F15A22"/>
	</linearGradient>
	<path class="st2" d="M428.9,235.5c-88.3-12.4-147.4-54.1-226.2-64.7c-74.5-10-108.9,20.4-108.9,53.4c2,0,5.2,0,5.2,0
		c0-11.1,9.9-27.1,44.3-25C229.2,204.4,330,273,440.9,273c84.5,0,129.9-46.1,138.7-71.6C579.6,201.4,526.6,249.3,428.9,235.5z"/>
	<radialGradient id="SVGID_4_" cx="350.5537" cy="128.9864" r="182.7624" gradientUnits="userSpaceOnUse">
		<stop  offset="0.3681" style="stop-color:#ED1C24;stop-opacity:0"/>
		<stop  offset="0.8039" style="stop-color:#A70E13"/>
	</radialGradient>
	<path class="st3" d="M520.5,133.8c0,22.2-33.7,51.3-102.9,43.5c-14.6-1.6-28.3-4.4-41.3-7.8c9.4-7.9,18.7-15.5,28-22.3
		c8.2,2.8,46.6,14.9,84.1,8.9c30.4-4.9,28.6-22.2,28.6-22.2c-0.2-11.9-8.6-21.9-29.4-21.9c-28.1,0-55.6,14.6-83.3,35.2
		c-1-0.4-1.6-0.6-1.6-0.6c-16.8-4.7-34.1-11.2-52.1-18c30.4-20.3,62.5-34.9,97.5-34.9C488,93.8,520.5,111.6,520.5,133.8z"/>
	<radialGradient id="SVGID_5_" cx="235.1992" cy="221.2541" r="136.1269" gradientUnits="userSpaceOnUse">
		<stop  offset="0.4417" style="stop-color:#ED1C24;stop-opacity:0"/>
		<stop  offset="0.9141" style="stop-color:#A70E13"/>
	</radialGradient>
	<path class="st4" d="M233.6,220.5c18.2,6.3,37,13.3,56.1,20c-31.1,20.7-59.4,38.5-113.9,38.5c-45.2,0-82-24.5-82-54.8
		c0-33,34.3-63.4,108.9-53.4c25.4,3.4,48.7,10,71.6,17.9C260.7,200,247.2,210.9,233.6,220.5c-31.6-10.9-61.7-19.6-90.2-21.3
		c-34.4-2.1-44.3,13.9-44.3,25c0,14.2,8.8,27,32.1,29.9c55.2,7,101.5-33,101.5-33C233,221,233.3,220.8,233.6,220.5z"/>
</g>
<g>
	<path class="st5" d="M1520.2,142.7c-33.5,0-67.4,11.9-67.4,45.2c0,25.3,25.7,42.3,66.8,42.3c41.1,0,66.8-18.2,66.8-45.2
		C1586.5,153.8,1551.7,142.7,1520.2,142.7z M1519.7,222.7c-31.3,0-40.5-18.7-40.5-36.3c0-18,11.2-36.3,40.5-36.3
		c36.9,0,40.5,22.7,40.5,36.3C1560.2,203.2,1551,222.7,1519.7,222.7z"/>
	<path class="st5" d="M1918.1,186.7c-5.2-3.8-10.6-5.2-23.7-8.6l-1.4-0.4c-15.5-4-24.9-6.4-24.9-14.8c0-7.6,8.2-12.8,20.9-12.5
		c17.6,0.4,26.9,10.6,26.9,10.6l6.2-12.6l-0.8-0.2c-8.6-2.6-16.8-5-30.5-5c-31.8,0-43.2,12.9-43.2,25c0,11.1,6.4,17.1,23.5,22.2
		c2.6,0.7,6,1.6,9.4,2.6c3.4,0.9,6.8,1.8,9.4,2.6c12,3.4,14.5,9.1,14.5,13.4c0,8.6-9.6,14.6-23.3,14.6c-17.9,0-31.4-14-31.4-14
		l-4.5,14.8l0.9,0.3c6.5,2.2,18.5,6.2,34.1,6.2c32.5,0,47-13.7,47-27.3C1927.3,200.9,1926.6,192.8,1918.1,186.7z"/>
	<polygon class="st5" points="675,218.1 675,144 651.7,144 651.7,228.9 724.2,228.9 724.2,218.1 	"/>
	<polygon class="st5" points="1405.5,144 1306.2,144 1306.2,154.8 1344.2,154.8 1344.2,228.8 1367.5,228.8 1367.5,154.8 
		1405.5,154.8 	"/>
	<path class="st5" d="M870.6,228.9h27l-62.6-86.8L775.1,229h12.8l17.6-24.9h48.7L870.6,228.9z M813,193.5l17.7-25.1l16.6,25.1H813z"
		/>
	<polygon class="st5" points="1049.9,144 1049.9,199.3 955.9,142.2 955.9,228.9 967.8,228.9 967.8,173.4 1061.9,230.7 1061.9,144 	
		"/>
	<polygon class="st5" points="1742.2,144 1742.2,199.3 1648.1,142.2 1648.1,228.9 1660.1,228.9 1660.1,173.4 1754.1,230.7 
		1754.1,144 	"/>
	<path class="st5" d="M1221.3,189.2v30.6c-5.9,1.8-13.4,2.8-21.4,2.8c-13.5,0-24.2-3.6-32.6-10.9c-7.5-6.4-10.9-14.4-10.9-25
		c0-23.1,16.4-35.8,46.1-35.8c26,0,37.1,11.4,37.1,11.4l5.9-13l-0.7-0.2c-14.1-4.2-27.3-6.1-42.9-6.1c-23,0-41.8,4.5-54.2,13
		c-11.5,7.8-17.6,18.8-17.6,31.7c0,29.5,33.1,42.8,65.8,42.8c18.1,0,34.6-3.2,49.8-8.6v-32.8H1221.3z"/>
	<polygon class="st5" points="1794.6,176.8 1815.6,142.2 1794.6,142.2 	"/>
</g>
</svg>
